<svg width="64" height="30" viewBox="0 0 64 30" fill="none" xmlns="http://www.w3.org/2000/svg">
<path d="M64 0H0V30H64V0Z" fill="#2E3192"/>
<path fill-rule="evenodd" clip-rule="evenodd" d="M60.2158 18.0955H61.9952V2.40918H60.166L60.2158 18.0955Z" fill="white"/>
<path fill-rule="evenodd" clip-rule="evenodd" d="M48.601 10.4135L47.6592 11.9044L47.6094 2.45898H48.601H49.3933H49.6423V8.84989L49.3933 9.24535L48.601 10.4135Z" fill="white"/>
<path fill-rule="evenodd" clip-rule="evenodd" d="M45.6537 17.2001L44.8613 18.4183H45.6537H47.7591L48.6013 17.0501L49.3936 15.8592L58.1594 2.40918H55.5831L49.6427 11.6546V11.0092L49.3936 11.3592L48.6013 12.5501L45.6537 17.2001Z" fill="white"/>
<path fill-rule="evenodd" clip-rule="evenodd" d="M37.1362 10.909L32.6582 17.6953L32.7035 18.8135H34.2158L37.1362 14.3681L44.8605 2.45898H42.6827L37.1362 10.909Z" fill="white"/>
<path fill-rule="evenodd" clip-rule="evenodd" d="M37.1375 18.8135H35.6523L37.1375 16.5044L45.6542 3.25444L46.1522 2.45898H46.3967V13.8181L45.6542 14.9635L44.1691 17.2999V9.61808L38.3011 18.8135H37.1375Z" fill="white"/>
<path fill-rule="evenodd" clip-rule="evenodd" d="M26.9369 4.29989H22.1602L23.2015 2.45898H26.9369H37.138H41.6205L40.2848 4.24989H37.138L26.9369 4.29989Z" fill="white"/>
<path fill-rule="evenodd" clip-rule="evenodd" d="M26.9357 11.0589L21.8103 18.9134H20.5742V17.5452L26.9357 7.50433L27.0353 7.35888H26.9357H20.873L20.7236 6.75888L21.4662 5.46797L26.9357 5.41797H30.5761L26.9357 11.0589Z" fill="white"/>
<path fill-rule="evenodd" clip-rule="evenodd" d="M26.9356 13.1502L23.25 18.9138H26.2429L26.9356 17.7456L33.0526 7.40927H37.1367H38.006L39.5409 5.31836L37.1367 5.36836L31.9116 5.41836L26.9356 13.1502Z" fill="white"/>
<path fill-rule="evenodd" clip-rule="evenodd" d="M17.8262 18.7135H20.0538V2.45898H17.7266L17.8262 18.7135Z" fill="white"/>
<path fill-rule="evenodd" clip-rule="evenodd" d="M9.65699 9.51808L3.63959 18.7135H1.98242V17.5453L9.65699 5.76808L11.8077 2.45898H13.2475H14.2346L13.2475 3.99989L9.65699 9.51808Z" fill="white"/>
<path fill-rule="evenodd" clip-rule="evenodd" d="M9.65759 11.609L8.96484 12.6999H16.662V2.45898H15.521L13.2934 6.06353L9.67117 11.609H9.65759ZM13.2481 11.109L12.2565 11.159L14.3348 7.80444H14.7332V11.109H13.2481Z" fill="white"/>
<path fill-rule="evenodd" clip-rule="evenodd" d="M49.3936 18.0456L59.0513 3.00928L59.0015 18.0956H56.9685V9.71837L51.6484 18.4184H49.3936H49.1445L49.3936 18.0456Z" fill="white"/>
<path fill-rule="evenodd" clip-rule="evenodd" d="M58.5527 24.5453H59.7933L58.5527 21.818L57.3665 24.5453H58.5527ZM0.841797 20.1089H4.43231C4.96107 20.0944 5.49023 20.1111 6.01703 20.1589C6.35345 20.199 6.67592 20.3173 6.95881 20.5044C7.2212 20.6627 7.45535 20.864 7.65156 21.0999C7.80659 21.3548 7.891 21.6467 7.89606 21.9453C7.90566 22.293 7.78256 22.6312 7.55195 22.8908C7.32874 23.1998 7.01056 23.4265 6.64639 23.5362C7.11425 23.6354 7.54723 23.8582 7.90059 24.1817C8.19201 24.4912 8.35406 24.9012 8.35336 25.3271C8.34641 25.6646 8.24265 25.9928 8.05453 26.2726C7.85934 26.5686 7.6068 26.8221 7.31198 27.018C6.92951 27.2211 6.50788 27.339 6.0759 27.3635C5.53278 27.4169 4.98671 27.4336 4.44137 27.4135H0.850847V20.1089H0.841797ZM4.43231 21.3635H2.69818V23.0544H4.43231C4.67819 23.0186 4.92644 23.0019 5.17487 23.0044C5.43887 22.9825 5.69366 22.8967 5.91742 22.7544C5.99743 22.6776 6.06084 22.5851 6.10368 22.4827C6.14653 22.3803 6.16789 22.27 6.16645 22.1589C6.15803 21.9513 6.06857 21.7554 5.91742 21.6135C5.73516 21.4634 5.50987 21.3758 5.27448 21.3635H4.43231ZM4.43231 24.2726H2.69818V26.2089H5.56879C5.8108 26.1835 6.03802 26.0798 6.21626 25.9135C6.30408 25.8323 6.37189 25.7317 6.41433 25.6197C6.45676 25.5077 6.47266 25.3873 6.46076 25.268C6.46465 25.0741 6.41277 24.8831 6.31134 24.718C6.13986 24.5625 5.9378 24.4448 5.7182 24.3726C5.29423 24.2942 4.86325 24.2607 4.43231 24.2726ZM9.90186 27.4771V20.1089H16.5396V21.3635H11.713V23.0044H16.1909V24.1817H11.713V26.1726H16.6935V27.4135H9.90186V27.4771ZM21.8597 21.3635H20.0803V23.1817H21.8597C22.2427 23.197 22.6261 23.1634 23.0007 23.0817C23.1955 23.0439 23.3706 22.9375 23.4942 22.7817C23.5659 22.7115 23.621 22.626 23.6555 22.5316C23.69 22.4373 23.7029 22.3363 23.6934 22.2362C23.6944 22.1252 23.6727 22.0152 23.6299 21.9128C23.5871 21.8104 23.524 21.7179 23.4444 21.6408C23.2466 21.4805 23.0051 21.3838 22.7517 21.3635H21.8597ZM21.8597 24.818C21.7 24.672 21.5162 24.555 21.3164 24.4726C21.0171 24.4237 20.7136 24.4069 20.4108 24.4226H20.0667V27.4771H18.233V20.1089H22.0725C22.771 20.0758 23.4706 20.1416 24.1507 20.3044C24.5445 20.4311 24.8904 20.6753 25.1423 21.0044C25.4083 21.3235 25.5484 21.7294 25.5362 22.1453C25.5384 22.4057 25.4868 22.6637 25.3847 22.9031C25.2826 23.1425 25.1322 23.358 24.9431 23.5362C24.4448 23.925 23.8393 24.1503 23.209 24.1817C23.5565 24.3446 23.8747 24.5643 24.1507 24.8317C24.5412 25.1883 24.8905 25.5877 25.1921 26.0226L26.2788 27.4135H24.0783L22.7879 25.8226C22.5017 25.4583 22.1868 25.1179 21.8461 24.8044L21.8597 24.818ZM26.7904 25.068L28.5698 24.968C28.6443 25.3858 28.8741 25.7595 29.2128 26.0135C29.6015 26.2494 30.0491 26.3692 30.5032 26.3589C30.9515 26.3908 31.3992 26.2879 31.7891 26.0635C31.9225 25.9894 32.0344 25.8817 32.1138 25.751C32.1932 25.6203 32.2373 25.4711 32.2419 25.318C32.2458 25.2398 32.2296 25.1618 32.1947 25.0917C32.1597 25.0217 32.1074 24.9618 32.0427 24.918C31.8744 24.7312 31.6475 24.6077 31.3997 24.568L29.9644 24.2726C29.2447 24.1601 28.554 23.9068 27.9314 23.5271C27.6915 23.3709 27.4937 23.1577 27.3555 22.9063C27.2172 22.655 27.1429 22.3733 27.1391 22.0862C27.128 21.8936 27.1578 21.7008 27.2265 21.5206C27.2952 21.3403 27.4012 21.1768 27.5375 21.0408C27.8026 20.6732 28.1867 20.4096 28.6242 20.2953C29.1783 20.0867 29.7666 19.9849 30.3583 19.9953C31.2541 19.9464 32.1435 20.1731 32.9075 20.6453C33.1826 20.808 33.4109 21.0398 33.5697 21.318C33.7285 21.5962 33.8123 21.9111 33.813 22.2317L32.0291 22.2817C31.97 21.9637 31.7938 21.6796 31.5355 21.4862C31.182 21.3088 30.7894 21.2244 30.3945 21.2408C29.9692 21.2267 29.5464 21.3107 29.1585 21.4862C29.071 21.5378 28.9978 21.6106 28.9456 21.698C28.8934 21.7853 28.8638 21.8844 28.8596 21.9862C28.8659 22.0741 28.8975 22.1583 28.9505 22.2285C29.0036 22.2987 29.0758 22.3519 29.1585 22.3817C29.3577 22.5817 29.9508 22.7317 30.793 22.8817C31.4536 22.9934 32.1003 23.1763 32.7218 23.4271C33.105 23.5872 33.4437 23.8384 33.7089 24.1589C33.9443 24.505 34.0661 24.9162 34.0571 25.3351C34.0482 25.7541 33.909 26.1597 33.6591 26.4953C33.3427 26.8658 32.9258 27.1359 32.4592 27.2726C31.8208 27.4888 31.1495 27.5904 30.476 27.5726C29.5637 27.6304 28.6558 27.4034 27.8771 26.9226C27.5792 26.6974 27.3295 26.4143 27.1428 26.0903C26.9561 25.7662 26.8363 25.4077 26.7904 25.0362V25.068ZM39.1422 21.8453L39.0924 21.7999L37.9061 24.5453H40.333L39.1422 21.818V21.8453ZM39.1422 25.7999H37.3582L36.6157 27.4408H34.7367L38.2366 20.0817H40.1157L43.7062 27.4408H41.7683L40.9759 25.7999H39.1422ZM44.6163 27.4635V20.1089H47.3329L48.9675 25.1089L50.5522 20.1089H53.2688V27.4635H51.6343V21.6726L49.8504 27.4635H48.1162L46.3821 21.6726V27.4635H44.6163ZM59.5579 20.1089L63.1394 27.4635H61.1562L60.3638 25.8226H56.8458L56.1032 27.4635H54.1699L57.6608 20.1089H59.5579Z" fill="white"/>
<path fill-rule="evenodd" clip-rule="evenodd" d="M8.36786 13.8456L16.6401 13.8184V18.6911H14.6841V15.982H9.63111L7.97395 18.7138H5.07617L8.22298 13.8684H8.36786V13.8456Z" fill="white"/>
</svg>
