<svg width="91" height="30" viewBox="0 0 91 30" fill="none" xmlns="http://www.w3.org/2000/svg">
<path d="M54.4282 9.94492C54.5323 9.351 54.5323 8.74338 54.4282 8.14947C54.0977 6.29038 52.6761 4.78129 49.9959 4.73583L46.3152 4.6631L39.9362 4.54492L36.9572 10.3495L38.3154 10.2449L34.7207 26.154H44.9796C45.4358 26.1554 45.8909 26.1098 46.3378 26.0177C51.173 25.054 55.9176 19.1995 51.1549 14.5358C52.0126 14.0712 52.7532 13.4162 53.3205 12.6206C53.8877 11.8249 54.2666 10.9098 54.4282 9.94492ZM46.3152 20.7631C46.0769 20.9423 45.7889 21.0424 45.4912 21.0495H41.7924L43.0102 16.2676H45.781C45.9571 16.265 46.133 16.2802 46.3061 16.3131C48.5155 16.7358 47.7368 19.8131 46.3152 20.7631ZM47.2207 13.0358H43.7346L44.7668 8.78129H47.8364C49.4707 8.79947 49.2625 13.054 47.2252 13.054L47.2207 13.0358Z" fill="#003399"/>
<path d="M91 26.3639L89.1438 4.8457H79.2923L76.4175 10.2457H77.4497L72.4062 21.2184L70.1426 26.1366H76.9336L78.3733 22.1821H83.7291V26.3639H91ZM81.8548 17.9275H79.9986L81.8548 14.1866L83.711 10.4412V17.9275H81.8548Z" fill="#003399"/>
<path d="M60.668 15.8455C61.0393 12.45 67.6265 9.52276 72.0905 12.7364L72.3893 12.0137L74.6529 6.60913L72.3893 5.34094L70.0396 4.01367L69.6367 5.25004C66.8976 5.46367 59.6765 2.97731 55.2352 14.0955C54.8351 15.1181 54.5643 16.187 54.4294 17.2773C54.3386 18.0702 54.3386 18.8708 54.4294 19.6637C54.95 23.8728 58.4542 27.4773 67.4817 26.4819L69.8313 20.1182C62.9905 22.2728 60.3104 19.3909 60.668 15.8455Z" fill="#003399"/>
<path d="M26.5132 2.72727H26.486H26.4453C22.7066 1.0021 18.6524 0.0734821 14.5384 0C10.4693 0.0466283 6.45671 0.962376 2.76736 2.68636L2.71756 2.72727V2.76818C2.66776 2.81364 0.00116825 7.7 0.00116825 14.95C-0.0374532 19.1924 0.881983 23.3883 2.6904 27.2227L2.71756 27.2727L2.77189 27.3C6.51423 29.0156 10.5698 29.9349 14.6833 30C18.7525 29.9542 22.7653 29.0384 26.4543 27.3136H26.486L26.5087 27.2909C26.6309 27.1591 29.5601 24.0045 29.5601 14.4818C29.551 6.71364 26.64 2.9 26.5132 2.72727ZM26.2325 26.9591C22.6109 28.6445 18.6747 29.5399 14.6833 29.5864C10.6568 29.5292 6.6846 28.6443 3.01184 26.9864C1.258 23.22 0.365457 19.1075 0.399573 14.95C0.354202 10.823 1.24927 6.74014 3.01637 3.01364C6.63109 1.33815 10.5573 0.447528 14.5384 0.4C18.5727 0.461439 22.5514 1.35412 26.228 3.02273C26.8207 3.89306 27.3043 4.8335 27.6677 5.82273C28.6903 8.58454 29.1939 11.5129 29.1526 14.4591C29.1526 23.3864 26.4951 26.6727 26.2325 26.9727V26.9591Z" fill="#003399"/>
<path d="M14.7795 2.70032C14.7795 2.70032 9.99414 2.61395 9.99414 7.07304C9.99414 11.5321 14.4038 11.223 14.4038 16.6185V22.7276H15.1508V16.6367C15.1508 11.223 19.5604 11.5321 19.5604 7.09123C19.5604 2.65032 14.7795 2.70032 14.7795 2.70032Z" fill="#003399"/>
<path d="M8.08326 17.3633C10.4646 17.9906 13.516 19.4087 13.516 22.7224H13.8692V17.3042C13.8692 14.8769 11.687 10.1133 8.56315 10.1133C5.4393 10.1133 4.62891 12.8951 4.62891 14.0633C4.65154 15.6406 5.63397 16.7133 8.08326 17.3633Z" fill="#003399"/>
<path d="M9.45412 21.1505C11.5141 20.696 12.4738 21.7733 12.6549 22.7233H12.9764C13.1529 20.8324 11.3873 18.5187 8.26343 18.0142C5.13958 17.5096 4.98112 16.4551 4.98112 16.4551C3.45541 19.2551 4.72306 22.2005 9.45412 21.1505Z" fill="#003399"/>
<path d="M21.3105 17.3633C23.7598 16.7133 24.7422 15.6406 24.7422 14.0633C24.7422 12.8951 23.9318 10.1133 20.808 10.1133C17.6841 10.1133 15.502 14.8769 15.502 17.3042V22.7269H15.846C15.846 19.4087 18.9291 17.9906 21.3105 17.3633Z" fill="#003399"/>
<path d="M21.1338 18.0142C18.01 18.5187 16.2398 20.8324 16.4164 22.7233H16.7514C16.928 21.7733 17.8877 20.6914 19.9477 21.1505C24.6697 22.2005 25.9373 19.2551 24.4478 16.4551C24.4478 16.4551 24.2577 17.5096 21.1338 18.0142Z" fill="#003399"/>
<path d="M7.86606 25.9907L8.29615 26.1453L8.14222 26.5771C8.08614 26.5993 8.02581 26.6087 7.96566 26.6044C7.87585 26.5999 7.78727 26.5815 7.70307 26.5498C7.63672 26.5275 7.57643 26.49 7.52694 26.4403C7.47745 26.3906 7.44011 26.3301 7.41785 26.2635C7.36532 26.1165 7.36532 25.9559 7.41785 25.8089L7.58536 25.3544C7.6309 25.2039 7.72687 25.0738 7.857 24.9862C7.91507 24.9513 7.98019 24.9299 8.04757 24.9236C8.11495 24.9173 8.18287 24.9263 8.24635 24.9498C8.35654 24.9821 8.4504 25.0552 8.50894 25.1544C8.53051 25.2038 8.54164 25.2572 8.54164 25.3112C8.54164 25.3652 8.53051 25.4186 8.50894 25.468L8.92998 25.6226C8.97889 25.5263 9.00476 25.4198 9.00555 25.3117C9.00633 25.2036 8.98201 25.0968 8.93451 24.9998C8.80715 24.7958 8.60861 24.6467 8.37765 24.5817C8.26058 24.5338 8.13485 24.5112 8.00854 24.5151C7.88222 24.519 7.75812 24.5494 7.64422 24.6044C7.52893 24.6618 7.42651 24.7421 7.34321 24.8406C7.25992 24.9391 7.19751 25.0536 7.1598 25.1771L6.99228 25.6317C6.94069 25.7507 6.91406 25.8791 6.91406 26.0089C6.91406 26.1387 6.94069 26.2672 6.99228 26.3862C7.04981 26.5022 7.12994 26.6054 7.22793 26.6897C7.32592 26.774 7.43976 26.8378 7.56273 26.8771C7.74315 26.9519 7.93855 26.983 8.13317 26.968C8.27243 26.9598 8.40761 26.9177 8.52705 26.8453L8.83491 25.9817L7.96113 25.6635L7.86606 25.9907Z" fill="#003399"/>
<path d="M10.1793 25.0865L9.37346 24.9365L8.94336 27.2729L9.39609 27.3592L9.56813 26.4229L9.93937 26.4911C9.98944 26.4979 10.0376 26.5147 10.0812 26.5404C10.1247 26.5662 10.1627 26.6004 10.1929 26.6411C10.244 26.7272 10.2602 26.8297 10.2382 26.9274L10.2065 27.0956C10.1918 27.172 10.1842 27.2496 10.1838 27.3274C10.1754 27.3937 10.1933 27.4606 10.2336 27.5138L10.7135 27.6047V27.5683C10.6738 27.5195 10.6514 27.4587 10.6502 27.3956C10.6407 27.3262 10.6407 27.2559 10.6502 27.1865L10.6819 27.0138C10.7057 26.8893 10.6963 26.7607 10.6547 26.6411C10.6023 26.5265 10.5107 26.4346 10.3966 26.382C10.5145 26.3582 10.6239 26.3033 10.7135 26.2229C10.7928 26.1443 10.8451 26.0424 10.8629 25.932C10.8855 25.8364 10.8853 25.7368 10.8625 25.6413C10.8397 25.5457 10.7949 25.4569 10.7317 25.382C10.585 25.2251 10.3908 25.1213 10.1793 25.0865ZM10.4147 25.8683C10.4095 25.9149 10.3942 25.9597 10.37 25.9998C10.3458 26.0398 10.3131 26.0741 10.2744 26.1002C10.1781 26.1452 10.0692 26.1549 9.96654 26.1274L9.63604 26.0683L9.76281 25.3865L10.0978 25.4502C10.1497 25.4554 10.2001 25.471 10.2459 25.496C10.2918 25.521 10.3322 25.5548 10.3649 25.5956C10.3923 25.6348 10.411 25.6794 10.4196 25.7265C10.4282 25.7736 10.4265 25.822 10.4147 25.8683Z" fill="#003399"/>
<path d="M12.5226 26.9416C12.5216 27.0078 12.5069 27.073 12.4797 27.1332C12.4524 27.1934 12.4131 27.2473 12.3642 27.2916C12.3146 27.3319 12.2571 27.3613 12.1955 27.3777C12.1339 27.3942 12.0695 27.3974 12.0065 27.3871C11.9441 27.3863 11.8825 27.3726 11.8257 27.3468C11.7688 27.3209 11.7178 27.2836 11.676 27.2371C11.6359 27.1838 11.6068 27.1229 11.5904 27.0581C11.5741 26.9933 11.5709 26.9259 11.5809 26.8598L11.7077 25.3098L11.2323 25.2734L11.1056 26.8189C11.0886 26.9364 11.099 27.0562 11.1359 27.169C11.1728 27.2818 11.2353 27.3844 11.3184 27.4689C11.4971 27.644 11.7343 27.7461 11.9839 27.7553C12.228 27.7839 12.4741 27.7225 12.6766 27.5825C12.7718 27.5127 12.8498 27.4219 12.9047 27.3171C12.9596 27.2123 12.99 27.0963 12.9935 26.978L13.1293 25.428L12.6766 25.3871L12.5226 26.9416Z" fill="#003399"/>
<path d="M14.259 25.4547H13.3535V27.832H13.8062V26.9729H14.2363C14.4683 26.9859 14.697 26.9131 14.8792 26.7684C14.9568 26.7008 15.0185 26.6169 15.0599 26.5226C15.1014 26.4283 15.1216 26.3259 15.1192 26.2229C15.1229 26.1192 15.1041 26.0159 15.0643 25.9202C15.0244 25.8245 14.9644 25.7386 14.8883 25.6684C14.7115 25.5224 14.4877 25.4464 14.259 25.4547ZM14.5487 26.4956C14.5094 26.5339 14.4624 26.5634 14.4109 26.5822C14.3594 26.601 14.3046 26.6087 14.2499 26.6047H13.7972V25.8229H14.2273C14.2823 25.8193 14.3374 25.8275 14.389 25.8471C14.4405 25.8667 14.4873 25.8972 14.5261 25.9365C14.5606 25.9753 14.5872 26.0206 14.6043 26.0698C14.6214 26.1189 14.6287 26.1709 14.6257 26.2229C14.6317 26.3143 14.6043 26.4048 14.5487 26.4774V26.4956Z" fill="#003399"/>
<path d="M18.4692 26.5224C18.3757 26.4239 18.2471 26.3667 18.1116 26.3633C18.2083 26.3167 18.2876 26.2403 18.3379 26.1452C18.387 26.0534 18.406 25.9484 18.3923 25.8452C18.3858 25.7517 18.3563 25.6612 18.3065 25.5819C18.2568 25.5026 18.1882 25.4369 18.107 25.3906C17.8999 25.292 17.6674 25.2602 17.4415 25.2997L16.6719 25.377L16.9254 27.727L17.8309 27.6315C18.0559 27.6192 18.2706 27.533 18.4421 27.3861C18.512 27.3174 18.5642 27.2327 18.5941 27.1392C18.6241 27.0458 18.631 26.9464 18.6141 26.8497C18.601 26.7281 18.5503 26.6137 18.4692 26.5224ZM17.2061 25.6906L17.5049 25.6588C17.6112 25.6395 17.7208 25.6555 17.8173 25.7043C17.8563 25.7293 17.8886 25.7635 17.9115 25.8039C17.9343 25.8443 17.9471 25.8896 17.9486 25.9361C17.9551 25.9792 17.9512 26.0232 17.937 26.0644C17.9228 26.1056 17.8988 26.1427 17.8671 26.1724C17.7887 26.2399 17.6896 26.2784 17.5864 26.2815L17.2695 26.3133L17.2061 25.6906ZM18.1116 27.1679C18.0338 27.237 17.9346 27.2771 17.8309 27.2815L17.3781 27.327L17.3057 26.6452L17.7584 26.5997C17.8619 26.5799 17.969 26.6011 18.0572 26.6588C18.0947 26.6901 18.1254 26.7289 18.1472 26.7727C18.169 26.8166 18.1815 26.8644 18.184 26.9133C18.1865 26.9613 18.178 27.0092 18.1592 27.0533C18.1403 27.0974 18.1117 27.1366 18.0753 27.1679H18.1116Z" fill="#003399"/>
<path d="M20.6365 26.3635L20.1838 26.4498C20.219 26.5697 20.206 26.6986 20.1476 26.8089C20.1104 26.86 20.0631 26.9028 20.0085 26.9345C19.954 26.9662 19.8934 26.9861 19.8308 26.9929C19.7682 26.9997 19.7048 26.9934 19.6447 26.9742C19.5847 26.9551 19.5293 26.9235 19.482 26.8816C19.3676 26.7693 19.2928 26.6224 19.2693 26.4635L19.1787 26.0089C19.1408 25.8579 19.1519 25.6986 19.2104 25.5544C19.234 25.493 19.2731 25.439 19.324 25.3975C19.3748 25.3561 19.4355 25.3286 19.5002 25.318C19.5587 25.2964 19.6216 25.289 19.6836 25.2966C19.7455 25.3041 19.8048 25.3263 19.8566 25.3614C19.9083 25.3965 19.951 25.4434 19.9811 25.4983C20.0112 25.5532 20.0279 25.6145 20.0298 25.6771L20.4826 25.5862C20.4691 25.476 20.4307 25.3704 20.3703 25.2774C20.3098 25.1844 20.229 25.1066 20.134 25.0498C19.9174 24.9385 19.6677 24.911 19.4322 24.9726C19.308 24.9919 19.1894 25.0381 19.0847 25.108C18.9799 25.1778 18.8915 25.2696 18.8256 25.3771C18.6933 25.6016 18.6528 25.8687 18.7124 26.1226L18.8075 26.5771C18.8266 26.7057 18.8713 26.8292 18.939 26.9401C19.0066 27.051 19.0959 27.147 19.2013 27.2226C19.3064 27.2956 19.4256 27.3456 19.5513 27.3691C19.6769 27.3926 19.806 27.3891 19.9302 27.3589C20.1654 27.3258 20.3791 27.2039 20.5279 27.018C20.5929 26.9289 20.6369 26.8262 20.6565 26.7175C20.6762 26.6088 20.6709 26.4971 20.641 26.3907L20.6365 26.3635Z" fill="#003399"/>
<path d="M21 24.5992L21.0272 27.1083L21.4799 26.9446V26.4083L22.1862 26.1537L22.5031 26.6083L22.9558 26.4446L21.4618 24.4355L21 24.5992ZM21.4527 26.0128L21.4256 25.1355L21.9462 25.8401L21.4527 26.0128Z" fill="#003399"/>
</svg>
