<svg width="127" height="30" viewBox="0 0 127 30" fill="none" xmlns="http://www.w3.org/2000/svg">
<path d="M43.4218 14.8449V14.804C45.0843 14.2449 46.0447 13.1994 46.0447 11.3176C46.0447 8.74943 43.979 7.53125 41.2065 7.53125H34.3613V22.4631H40.6311C43.2949 22.4631 46.4298 21.7131 46.4298 18.1403C46.4298 16.3222 45.406 15.254 43.4218 14.8449ZM38.3162 10.354H39.4669C40.7897 10.354 42.0717 10.4858 42.0717 11.8494C42.0717 13.1131 40.7127 13.4358 39.4261 13.4358H38.3162V10.354ZM39.4895 19.6403H38.3162V16.1312H39.5348C40.8939 16.1312 42.4523 16.2812 42.4523 17.904C42.4613 19.4222 40.9482 19.6403 39.4986 19.6403H39.4895Z" fill="#00529C"/>
<path d="M51.6355 7.53125L45.9863 22.4631H50.0137L51.187 19.2812H56.7728L57.8781 22.4631H62.2317L56.4964 7.53125H51.6355ZM52.0885 16.454L54.0094 10.6131H54.0501L55.8214 16.454H52.0885Z" fill="#00529C"/>
<path d="M72.9089 17.6722H72.8636L67.835 7.53125H62.7793V22.4631H66.4261L66.2993 12.2585H66.34L71.5407 22.4631H76.4696V7.53125H72.8454L72.9089 17.6722Z" fill="#00529C"/>
<path d="M91.0744 7.53125H86.2996L81.8192 13.6267H81.7784V7.53125H77.8145V22.4631H81.7784V15.6812H81.8192L86.4445 22.4631H91.5002L85.5747 14.4813L91.0744 7.53125Z" fill="#00529C"/>
<path d="M105.481 14.8449V14.804C107.144 14.2449 108.099 13.1994 108.099 11.3176C108.099 8.74943 106.034 7.53125 103.261 7.53125H96.416V22.4631H102.686C105.35 22.4631 108.485 21.7131 108.485 18.1403C108.485 16.3222 107.461 15.254 105.481 14.8449ZM100.38 10.354H101.531C102.853 10.354 104.131 10.4858 104.131 11.8494C104.131 13.1131 102.772 13.4358 101.485 13.4358H100.38V10.354ZM101.553 19.6403H100.38V16.1312H101.594C102.953 16.1312 104.516 16.2812 104.516 17.904C104.521 19.4222 103.003 19.6403 101.558 19.6403H101.553Z" fill="#00529C"/>
<path d="M118.385 15.104V15.0585C120.306 14.604 121.239 13.2858 121.239 11.2949C121.239 8.7267 119.087 7.53125 116.446 7.53125H109.365V22.4631H113.329V16.554H114.163C115.635 16.554 116.147 17.1949 116.958 19.7631L117.81 22.4585H121.946L120.496 18.3949C119.749 16.5812 119.662 15.4449 118.385 15.104ZM114.376 13.7403H113.329V10.354H114.376C115.889 10.354 117.275 10.6131 117.275 11.9994C117.275 13.6903 115.658 13.7358 114.376 13.7358V13.7403Z" fill="#00529C"/>
<path d="M126.999 7.53125H123.035V22.4631H126.999V7.53125Z" fill="#00529C"/>
<path d="M25.3152 0H4.56227C3.3391 0.0155831 2.17201 0.517176 1.31685 1.39481C0.461693 2.27244 -0.0117501 3.4545 0.000341267 4.68182V25.3136C-0.0143882 26.5297 0.448201 27.7029 1.28818 28.5797C2.12816 29.4565 3.27814 29.9667 4.4898 30H25.3016C26.5264 29.9856 27.6953 29.4839 28.5516 28.6052C29.4078 27.7264 29.8813 26.5425 29.868 25.3136V4.69091C29.8826 3.46358 29.4115 2.28055 28.558 1.4012C27.7045 0.521858 26.5384 0.0179638 25.3152 0ZM7.02671 27.6H5.89416C5.23687 27.5904 4.60988 27.3211 4.14932 26.8505C3.68875 26.3798 3.4318 25.7459 3.43425 25.0864V24.8864V5.84546V4.81818C3.44468 4.18408 3.69974 3.57874 4.14583 3.12945C4.59192 2.68017 5.19429 2.42195 5.82622 2.40909H8.12755C9.14975 2.44001 10.1189 2.87296 10.8257 3.6145C11.5326 4.35605 11.9205 5.34673 11.9058 6.37273C11.9086 7.3887 11.5189 8.36624 10.8185 9.1L4.92922 15.0773L10.4516 20.6818C11.1689 21.4084 11.5767 22.3864 11.5886 23.4091C11.5886 25.7318 9.54551 27.6 7.02671 27.6ZM23.9516 27.5773H13.6861C13.6861 27.5773 14.873 25.0045 14.873 23.4091C14.914 21.6541 14.3256 19.9428 13.215 18.5864L9.70408 14.9955L13.2875 11.2818C14.3521 10.2773 15.0588 8.49091 15.0588 6.45455C15.0863 5.02039 14.6839 3.61101 13.9036 2.40909H16.3907C17.4129 2.44001 18.382 2.87296 19.0888 3.6145C19.7957 4.35605 20.1836 5.34673 20.1689 6.37273C20.1717 7.3887 19.782 8.36624 19.0816 9.1L13.3192 15.0091L25.2835 27.25C24.8779 27.4797 24.4171 27.5929 23.9516 27.5773ZM26.4568 23.7591L17.8811 14.9909L21.9583 10.8273C22.8803 9.56037 23.3582 8.02274 23.3174 6.45455C23.3485 4.99524 22.9412 3.5603 22.1486 2.33636L23.9607 2.39545C24.2888 2.39724 24.6135 2.46394 24.9159 2.59174C25.2184 2.71955 25.4927 2.90594 25.7233 3.14026C25.9539 3.37458 26.1362 3.65222 26.2597 3.9573C26.3832 4.26237 26.4456 4.5889 26.4432 4.91818L26.4568 23.7591Z" fill="#00529C"/>
</svg>
