<svg width="84" height="30" viewBox="0 0 84 30" fill="none" xmlns="http://www.w3.org/2000/svg">
<path d="M14.9053 30C23.1373 30 29.8107 23.2843 29.8107 15C29.8107 6.71573 23.1373 0 14.9053 0C6.67335 0 0 6.71573 0 15C0 23.2843 6.67335 30 14.9053 30Z" fill="#01AED6"/>
<path d="M23.199 13.6591C23.0212 12.9797 22.6371 12.3732 22.1002 11.9242C21.5634 11.4752 20.9006 11.2061 20.2044 11.1545H10.1365C10.0383 11.1707 9.93774 11.1652 9.84182 11.1384C9.7459 11.1116 9.65692 11.0641 9.58105 10.9993C9.50518 10.9344 9.44424 10.8537 9.40244 10.7628C9.36064 10.6719 9.33899 10.5729 9.33899 10.4727C9.33899 10.3725 9.36064 10.2735 9.40244 10.1826C9.44424 10.0917 9.50518 10.011 9.58105 9.94614C9.65692 9.88128 9.7459 9.8338 9.84182 9.80699C9.93774 9.78018 10.0383 9.77468 10.1365 9.79088H19.9153C19.9153 9.79088 19.8792 7.17725 16.5955 7.17725H11.3245C9.06607 7.17725 6.66767 8.37725 6.52765 11.3182C6.3762 13.7734 6.3762 16.2357 6.52765 18.6909C6.66767 20.4 7.13741 22.3591 10.8547 22.6863C14.572 23.0136 18.6868 22.8318 20.1322 22.5045C20.9665 22.3045 21.7149 21.8401 22.267 21.1797C22.8192 20.5192 23.1459 19.6978 23.199 18.8363C23.3436 16.7863 23.5604 15.1136 23.199 13.6591ZM20.5658 16.8772V17.7863C20.5658 17.9503 20.501 18.1075 20.3858 18.2235C20.2706 18.3394 20.1144 18.4045 19.9515 18.4045C19.7886 18.4045 19.6323 18.3394 19.5171 18.2235C19.4019 18.1075 19.3372 17.9503 19.3372 17.7863V16.8772C19.1893 16.7507 19.0835 16.5816 19.0341 16.3926C18.9848 16.2036 18.9942 16.004 19.0612 15.8206C19.1282 15.6372 19.2495 15.4789 19.4087 15.3671C19.5679 15.2553 19.7573 15.1954 19.9515 15.1954C20.1456 15.1954 20.3351 15.2553 20.4943 15.3671C20.6535 15.4789 20.7748 15.6372 20.8418 15.8206C20.9087 16.004 20.9182 16.2036 20.8688 16.3926C20.8195 16.5816 20.7137 16.7507 20.5658 16.8772Z" fill="white"/>
<path d="M48.5005 8.98193C45.8492 8.98193 43.6992 10.9865 43.6992 13.4638C43.6992 15.941 45.8492 17.9456 48.5005 17.9456C51.1519 17.9456 53.2974 15.9365 53.2974 13.4638C53.2974 10.991 51.1519 8.98193 48.5005 8.98193ZM48.5005 15.8001C47.8582 15.8235 47.2329 15.5898 46.7613 15.1502C46.2898 14.7106 46.0106 14.101 45.9847 13.4547C46.0382 12.8202 46.3264 12.2291 46.7923 11.7983C47.2582 11.3675 47.8678 11.1285 48.5005 11.1285C49.1332 11.1285 49.7429 11.3675 50.2088 11.7983C50.6747 12.2291 50.9629 12.8202 51.0164 13.4547C51.0053 13.7757 50.9314 14.0913 50.7989 14.3835C50.6664 14.6757 50.4778 14.9387 50.2441 15.1575C50.0104 15.3762 49.7361 15.5464 49.4369 15.6582C49.1377 15.77 48.8195 15.8214 48.5005 15.8092V15.8001Z" fill="#080403"/>
<path d="M59.541 8.98193C58.5621 8.98259 57.6144 9.32838 56.8625 9.95921V9.21375H54.4551V21.0319H56.8625V16.7819C57.6128 17.4161 58.5612 17.7638 59.541 17.7638C60.6982 17.7638 61.8079 17.3011 62.6262 16.4777C63.4445 15.6542 63.9042 14.5374 63.9042 13.3728C63.9042 12.2083 63.4445 11.0915 62.6262 10.268C61.8079 9.44455 60.6982 8.98193 59.541 8.98193ZM59.0893 15.8001C58.6031 15.7965 58.1298 15.6417 57.7344 15.3569C57.339 15.0721 57.0408 14.6712 56.8806 14.2092V12.5365C57.041 12.075 57.3394 11.6747 57.7348 11.3907C58.1303 11.1066 58.6034 10.9527 59.0893 10.9501C59.7278 10.9501 60.3401 11.2054 60.7916 11.6597C61.2431 12.1141 61.4967 12.7303 61.4967 13.3728C61.4967 14.0154 61.2431 14.6316 60.7916 15.086C60.3401 15.5403 59.7278 15.7956 59.0893 15.7956V15.8001Z" fill="#080403"/>
<path d="M80.5802 8.98193L77.8431 14.5592L75.1059 8.98193H72.6895L76.6326 17.0228L74.6723 21.0183H77.0933L77.8431 19.4865L79.0536 17.0228L83.0012 8.98193H80.5802Z" fill="#080403"/>
<path d="M42.5528 18.032V9.05469H40.4209V9.88196C39.7689 9.41956 39.0031 9.1463 38.2073 9.092C37.4115 9.03769 36.6161 9.20444 35.908 9.57403C35.1999 9.94362 34.6063 10.5019 34.192 11.1878C33.7777 11.8737 33.5586 12.6611 33.5586 13.4638C33.5586 14.2665 33.7777 15.0538 34.192 15.7398C34.6063 16.4257 35.1999 16.9839 35.908 17.3535C36.6161 17.7231 37.4115 17.8899 38.2073 17.8356C39.0031 17.7813 39.7689 17.508 40.4209 17.0456V17.6774C40.4209 18.8001 39.3278 19.7047 37.9773 19.7047C37.5012 19.7286 37.0285 19.6124 36.6169 19.3702C36.2054 19.128 35.873 18.7704 35.6602 18.3411L33.8761 19.782C34.3287 20.4397 34.9379 20.9729 35.648 21.3326C36.3582 21.6923 37.1466 21.8671 37.9412 21.8411C40.4028 21.8411 42.4083 20.2274 42.5122 18.2047V18.0274L42.5528 18.032ZM38.1309 15.9411C37.6825 15.9416 37.2425 15.8191 36.8581 15.5868C36.4738 15.3545 36.1596 15.0211 35.9495 14.6225C35.7393 14.224 35.6411 13.7753 35.6654 13.3247C35.6897 12.8742 35.8356 12.4388 36.0874 12.0655C36.3392 11.6921 36.6873 11.395 37.0944 11.2059C37.5015 11.0168 37.9521 10.9429 38.3978 10.9923C38.8435 11.0417 39.2673 11.2124 39.6238 11.4861C39.9803 11.7598 40.2558 12.1261 40.4209 12.5456V14.3638C40.241 14.8279 39.9263 15.2267 39.5178 15.5081C39.1093 15.7895 38.6259 15.9404 38.1309 15.9411Z" fill="#080403"/>
<path d="M68.4479 8.98193C65.4397 8.98193 64.4732 10.9319 64.0938 11.7092L66.1127 12.191C66.1127 12.191 66.3296 10.7183 68.4976 10.7183C70.6656 10.7183 70.3721 12.191 68.3531 12.4592C66.3341 12.7274 64.0938 13.2183 64.0938 15.1228C64.0938 16.7728 65.512 17.7138 67.4858 17.7138C69.4597 17.7138 70.1553 16.5501 70.1553 16.5501V17.7138H72.2691V12.0819C72.2691 10.7774 71.4561 8.98193 68.4479 8.98193ZM67.5807 15.9365C65.6791 15.9365 65.923 14.4547 67.0026 14.3365C68.3576 14.1819 69.5545 13.9683 70.2049 13.341C70.2049 14.7956 69.4823 15.9365 67.5807 15.9365Z" fill="#080403"/>
</svg>
