<svg width="103" height="30" viewBox="0 0 103 30" fill="none" xmlns="http://www.w3.org/2000/svg">
<path d="M0.104559 20.6166C0.104559 19.1258 0.0772794 17.8895 0 16.7623H2.81843L2.95026 18.6759H3.03208C3.43794 17.9845 4.02201 17.4148 4.72329 17.0262C5.42457 16.6377 6.21734 16.4445 7.01879 16.4669C7.79114 16.4453 8.55122 16.6636 9.19436 17.0917C9.8375 17.5199 10.3321 18.1368 10.61 18.8577H10.6646C11.0618 18.2019 11.6066 17.6478 12.2556 17.2396C13.0201 16.7091 13.9348 16.4382 14.8649 16.4669C17.0196 16.4669 19.1971 17.9305 19.1971 22.0802V29.707H16.015V22.5574C16.015 20.403 15.274 19.1258 13.7012 19.1258C13.1907 19.1477 12.6993 19.3254 12.2929 19.635C11.8865 19.9446 11.5848 20.3713 11.4283 20.8575C11.3333 21.2122 11.2799 21.5768 11.2692 21.9438V29.707H8.08706V22.2075C8.08706 20.3894 7.36882 19.1258 5.85505 19.1258C5.3194 19.152 4.80542 19.3454 4.38546 19.6788C3.9655 20.0123 3.66069 20.4691 3.51394 20.9848C3.38416 21.3241 3.32088 21.6852 3.32756 22.0484V29.707H0.14547L0.104559 20.6166Z" fill="#003D79"/>
<path d="M31.6319 26.5981C31.6154 27.6375 31.6762 28.6766 31.8137 29.707H28.8635L28.6316 28.2707H28.5543C28.0887 28.8295 27.5023 29.2753 26.8392 29.5745C26.1762 29.8737 25.4539 30.0185 24.7267 29.9979C22.1174 29.9979 20.6582 28.1117 20.6582 26.1436C20.6582 22.8711 23.5539 21.2257 28.3407 21.253V21.0394C28.3407 20.1894 27.9952 18.7668 25.7086 18.7668C24.4816 18.7689 23.2775 19.1001 22.222 19.7258L21.5856 17.5987C23.0173 16.8133 24.6305 16.4183 26.2632 16.4533C30.4136 16.4533 31.6137 19.0895 31.6137 21.9075L31.6319 26.5981ZM28.4498 23.3801C26.1314 23.3256 23.9267 23.8347 23.9267 25.7982C23.9044 26.0485 23.9373 26.3006 24.0231 26.5368C24.1089 26.773 24.2455 26.9875 24.4232 27.1652C24.6009 27.3429 24.8155 27.4795 25.0517 27.5652C25.2879 27.651 25.5401 27.6839 25.7905 27.6617C26.3491 27.6714 26.8966 27.5043 27.3546 27.1843C27.8126 26.8644 28.1577 26.4078 28.3407 25.88C28.4149 25.6479 28.4517 25.4055 28.4498 25.1618V23.3801Z" fill="#003D79"/>
<path d="M33.8897 20.6164C33.8897 19.1256 33.8624 17.8893 33.7852 16.7621H36.6536L36.8127 18.7029H36.8945C37.3233 18.0005 37.9299 17.4239 38.6531 17.0312C39.3763 16.6385 40.1904 16.4438 41.013 16.4666C43.286 16.4666 45.6134 17.9302 45.6134 22.0254V29.7067H42.345V22.3981C42.345 20.5346 41.654 19.1256 39.872 19.1256C39.3 19.1392 38.7465 19.3308 38.2886 19.6738C37.8307 20.0168 37.4911 20.494 37.3173 21.0391C37.2173 21.3844 37.1728 21.7434 37.1855 22.1026V29.7067H33.8897V20.6164Z" fill="#003D79"/>
<path d="M59.7969 11.5625V26.0661C59.7969 27.3933 59.8514 28.8296 59.9015 29.7022H56.9785L56.8466 27.6569H56.8148C56.3902 28.3947 55.7718 29.0024 55.0267 29.4142C54.2815 29.826 53.4379 30.0262 52.5872 29.9931C49.5006 29.9931 47.0549 27.3615 47.0549 23.3754C47.0276 19.0438 49.7415 16.4622 52.8508 16.4622C54.6328 16.4622 55.9102 17.2076 56.4875 18.1666H56.5421V11.5625H59.7969ZM56.5239 22.1573C56.5251 21.8706 56.4993 21.5845 56.4466 21.3028C56.3179 20.6507 55.9662 20.0636 55.452 19.6424C54.9378 19.2211 54.293 18.9918 53.6282 18.9938C51.528 18.9938 50.3552 20.8574 50.3552 23.2754C50.3552 25.6934 51.528 27.366 53.6009 27.366C54.2652 27.3635 54.9083 27.132 55.4217 26.7106C55.9352 26.2891 56.2875 25.7035 56.4193 25.0525C56.4972 24.7406 56.5324 24.4195 56.5239 24.0981V22.1573Z" fill="#003D79"/>
<path d="M62.1113 16.7627H65.4066V29.7073H62.1113V16.7627Z" fill="#003D79"/>
<path d="M67.7237 20.9351C67.7237 19.1807 67.6964 17.9308 67.6191 16.7627H70.4512L70.5558 19.2307H70.6603C70.9 18.4891 71.3759 17.8463 72.0154 17.4006C72.6549 16.955 73.4227 16.7309 74.2015 16.7627C74.4569 16.7354 74.7144 16.7354 74.9698 16.7627V19.6352C74.6549 19.5643 74.3333 19.5278 74.0106 19.5261C73.3055 19.5079 72.6183 19.7491 72.0795 20.2041C71.5406 20.6591 71.1877 21.2961 71.0876 21.9942C71.0218 22.3281 70.9868 22.6674 70.9831 23.0077V29.7073H67.7237V20.9351Z" fill="#003D79"/>
<path d="M76.498 16.7627H79.7888V29.7073H76.498V16.7627Z" fill="#003D79"/>
<path d="M75.8195 1.09091C73.8375 2.24084 67.3687 5.93606 67.3687 5.93606C64.9367 6.93599 63.0775 5.71789 62.4774 4.82249C62.449 4.78906 62.4246 4.75245 62.4047 4.71341L62.3274 4.57705L61.9137 3.90891C61.741 3.63166 61.5455 3.34986 61.3228 3.05442C61.1154 2.79248 60.8939 2.54212 60.6591 2.30447C59.0862 0.727301 56.6042 -0.377173 52.4493 1.59997L44.0849 6.3633L39.8027 8.8086L42.0166 11.5357C42.9485 12.4447 44.6986 13.881 47.4079 12.6538C47.4079 12.6538 54.8858 8.32681 54.9177 8.31318C61.3091 4.80431 64.464 8.15409 65.855 10.3903C65.905 10.4585 65.9459 10.5358 65.9868 10.6039C66.0022 10.6303 66.0159 10.6576 66.0277 10.6857L66.1868 10.9403C66.5041 11.456 66.95 11.8805 67.4807 12.1721C68.0114 12.4637 68.6088 12.6125 69.2144 12.6038C69.8867 12.5679 70.5369 12.3512 71.0963 11.9766L78.3288 7.78139C84.7975 4.23162 88.0069 7.78139 89.3752 10.0312C89.4801 10.2218 89.597 10.4055 89.7252 10.5812C90.0311 11.0443 90.448 11.4237 90.9378 11.6848C91.4276 11.946 91.9749 12.0806 92.53 12.0766C93.1635 12.0205 93.7767 11.8249 94.3256 11.5039L102.999 6.5042C102.161 5.30851 101.25 4.16551 100.272 3.08169C98.6396 1.21818 96.9031 2.05903 95.5257 2.74535C94.9484 3.0317 90.7617 5.40427 90.7617 5.40427C88.4887 6.34967 86.6704 5.31791 85.9794 4.44979C85.912 4.36736 85.8498 4.28083 85.7931 4.19071L85.6339 3.90437C85.3599 3.43115 85.0563 2.97572 84.7248 2.54082C84.5295 2.26982 84.3169 2.01172 84.0884 1.76814C83.5593 1.20629 82.9202 0.759366 82.2108 0.455186C81.5015 0.151006 80.7371 -0.0039132 79.9653 7.50935e-05C78.519 0.0483221 77.1021 0.421132 75.8195 1.09091Z" fill="url(#paint0_linear)"/>
<defs>
<linearGradient id="paint0_linear" x1="45.1209" y1="20.4825" x2="112.864" y2="-10.8212" gradientUnits="userSpaceOnUse">
<stop stop-color="#FDB913"/>
<stop offset="0.22" stop-color="#FFCB05"/>
<stop offset="0.39" stop-color="#FAA61A"/>
<stop offset="0.53" stop-color="#FFCB05"/>
<stop offset="0.65" stop-color="#FAA61A"/>
<stop offset="0.76" stop-color="#FFCB05"/>
<stop offset="1" stop-color="#FFCB05"/>
</linearGradient>
</defs>
</svg>
