<svg width="91" height="30" viewBox="0 0 91 30" fill="none" xmlns="http://www.w3.org/2000/svg">
<path d="M76.2661 0.000468036C73.3238 -0.0229455 70.441 0.832572 67.9832 2.45848C65.5254 4.08439 63.6036 6.40742 62.4614 9.13284C61.3193 11.8583 61.0084 14.8632 61.5681 17.7666C62.1278 20.6699 63.5329 23.3407 65.6052 25.4401C67.6775 27.5395 70.3235 28.973 73.2076 29.5586C76.0917 30.1442 79.0839 29.8556 81.8045 28.7293C84.5252 27.6031 86.8517 25.69 88.4888 23.2327C90.126 20.7755 91.0001 17.8849 91.0002 14.9275C91.0079 12.975 90.633 11.0401 89.8967 9.2333C89.1604 7.42645 88.0773 5.78306 86.7091 4.39695C85.3409 3.01084 83.7145 1.90916 81.9226 1.15481C80.1308 0.400458 78.2087 0.00821246 76.2661 0.000468036ZM76.2661 25.0274C71.192 25.0274 67.0765 20.482 67.0765 14.9275C67.0765 9.37307 71.192 4.82768 76.2661 4.82768C81.3403 4.82768 85.4557 9.37307 85.4557 14.9275C85.4557 20.482 81.3403 25.0274 76.2661 25.0274Z" fill="#4D3490"/>
<path d="M14.9692 0.000468036C12.027 -0.0229455 9.14408 0.832572 6.68632 2.45848C4.22856 4.08439 2.3067 6.40742 1.16456 9.13284C0.022419 11.8583 -0.288521 14.8632 0.271186 17.7666C0.830892 20.6699 2.23602 23.3407 4.3083 25.4401C6.38058 27.5395 9.02663 28.973 11.9107 29.5586C14.7948 30.1442 17.787 29.8556 20.5077 28.7293C23.2283 27.6031 25.5548 25.69 27.192 23.2327C28.8291 20.7755 29.7032 17.8849 29.7033 14.9275C29.7111 12.975 29.3361 11.0401 28.5998 9.2333C27.8635 7.42645 26.7804 5.78306 25.4122 4.39695C24.044 3.01084 22.4176 1.90916 20.6258 1.15481C18.834 0.400458 16.9119 0.00821246 14.9692 0.000468036ZM14.9692 25.0274C9.89508 25.0274 5.77967 20.482 5.77967 14.9275C5.77967 9.37307 9.89508 4.82768 14.9692 4.82768C20.0434 4.82768 24.1588 9.37307 24.1588 14.9275C24.1588 20.482 20.0479 25.0274 14.9692 25.0274Z" fill="#4D3490"/>
<path d="M50.3268 5.68219H53.2664L46.7088 21.8593L39.8619 5.68219H42.512V0.85498H30.8984V5.68219H33.8742L42.8874 27.0455C43.2518 27.9202 43.8651 28.6673 44.6503 29.1929C45.4356 29.7185 46.3578 29.9993 47.3013 30.0001H48.4997L58.7521 5.68219L59.6294 3.63676V0.85498H50.3268V5.68219Z" fill="#4D3490"/>
</svg>
