<svg xmlns="http://www.w3.org/2000/svg" xmlns:xlink="http://www.w3.org/1999/xlink" viewBox="0 0 40 30"><defs><style>.cls-1{isolation:isolate;}.cls-2,.cls-5{fill:url(#linear-gradient);}.cls-3,.cls-6{fill:url(#linear-gradient-2);}.cls-4{fill:url(#linear-gradient-3);}.cls-5,.cls-6,.cls-8{mix-blend-mode:multiply;}.cls-7{fill:url(#linear-gradient-7);}.cls-8{fill:url(#linear-gradient-8);}.cls-9{fill:url(#linear-gradient-9);}.cls-10{fill:url(#linear-gradient-10);}</style><linearGradient id="linear-gradient" x1="11.09" y1="15" x2="29.12" y2="15" gradientTransform="translate(0 0)" gradientUnits="userSpaceOnUse"><stop offset="0" stop-color="#00aeef"/><stop offset="1" stop-color="#99ddf0"/></linearGradient><linearGradient id="linear-gradient-2" x1="19.42" y1="15" x2="37.45" y2="15" xlink:href="#linear-gradient"/><linearGradient id="linear-gradient-3" x1="23.23" y1="16.95" x2="35.54" y2="16.95" xlink:href="#linear-gradient"/><linearGradient id="linear-gradient-7" x1="2.66" y1="15" x2="20.7" y2="15" xlink:href="#linear-gradient"/><linearGradient id="linear-gradient-8" x1="2.55" y1="15" x2="20.58" y2="15" xlink:href="#linear-gradient"/><linearGradient id="linear-gradient-9" x1="10.78" y1="15" x2="28.81" y2="15" xlink:href="#linear-gradient"/><linearGradient id="linear-gradient-10" x1="3263.64" y1="16.95" x2="3275.95" y2="16.95" gradientTransform="matrix(-1, 0, 0, 1, 3280.19, 0)" xlink:href="#linear-gradient"/></defs><title>SVG ICON</title><g class="cls-1"><g id="Layer_1" data-name="Layer 1"><path class="cls-2" d="M26.17,19.7l-.07-.14,0,0-3-6.1L21.25,9.63l-.05-.1a6,6,0,0,0-10.11-1,3,3,0,0,1,1.58-.46,2.91,2.91,0,0,1,2.59,1.56v0l3.88,7.47,1,1.9,1.18,2.22.22.44h0a4.92,4.92,0,0,0,4,2.07,5.4,5.4,0,0,0,3.57-1.33A5.79,5.79,0,0,1,26.17,19.7Z"/><path class="cls-3" d="M34.5,19.7l-.07-.14,0,0-3-6.1L29.57,9.63l0-.1a6,6,0,0,0-10.11-1,2.92,2.92,0,0,1,4.16,1.1l0,0,3.87,7.47,1,1.9,1.18,2.22.21.44h0a5,5,0,0,0,4,2.07,5.42,5.42,0,0,0,3.57-1.33A5.79,5.79,0,0,1,34.5,19.7Z"/><path class="cls-4" d="M35.54,10.75,34.36,13a6,6,0,0,0-.78,1.17s0,.09-.07.14v0l-2.58,5.27-.87,1.63-.22.44A4.72,4.72,0,0,1,28,23.28a5,5,0,0,1-2.18.51,5.48,5.48,0,0,1-2.58-.64l1.18-2.27a5.89,5.89,0,0,0,.78-1.18l.07-.14,0,0,2.57-5.27.87-1.63.22-.44a4.72,4.72,0,0,1,1.84-1.56A4.91,4.91,0,0,1,33,10.11,5.44,5.44,0,0,1,35.54,10.75Z"/><path class="cls-5" d="M26.17,19.7l-.07-.14,0,0-3-6.1L21.25,9.63l-.05-.1a6,6,0,0,0-10.11-1,3,3,0,0,1,1.58-.46,2.91,2.91,0,0,1,2.59,1.56v0l3.88,7.47,1,1.9,1.18,2.22.22.44h0a4.92,4.92,0,0,0,4,2.07,5.4,5.4,0,0,0,3.57-1.33A5.79,5.79,0,0,1,26.17,19.7Z"/><path class="cls-6" d="M34.5,19.7l-.07-.14,0,0-3-6.1L29.57,9.63l0-.1a6,6,0,0,0-10.11-1,2.92,2.92,0,0,1,4.16,1.1l0,0,3.87,7.47,1,1.9,1.18,2.22.21.44h0a5,5,0,0,0,4,2.07,5.42,5.42,0,0,0,3.57-1.33A5.79,5.79,0,0,1,34.5,19.7Z"/><path class="cls-4" d="M35.54,10.75,34.36,13a6,6,0,0,0-.78,1.17s0,.09-.07.14v0l-2.58,5.27-.87,1.63-.22.44A4.72,4.72,0,0,1,28,23.28a5,5,0,0,1-2.18.51,5.48,5.48,0,0,1-2.58-.64l1.18-2.27a5.89,5.89,0,0,0,.78-1.18l.07-.14,0,0,2.57-5.27.87-1.63.22-.44a4.72,4.72,0,0,1,1.84-1.56A4.91,4.91,0,0,1,33,10.11,5.44,5.44,0,0,1,35.54,10.75Z"/><path class="cls-7" d="M5.62,19.7l.07-.14v0l3-6.1,1.85-3.79.05-.1a6,6,0,0,1,10.11-1,3,3,0,0,0-1.59-.46,2.91,2.91,0,0,0-2.58,1.56v0l-3.88,7.47-1,1.9-1.18,2.22-.22.44h0a4.94,4.94,0,0,1-4,2.07,5.44,5.44,0,0,1-3.57-1.33A5.81,5.81,0,0,0,5.62,19.7Z"/><path class="cls-8" d="M5.5,19.7l.07-.14,0,0,3-6.1,1.86-3.79,0-.1a6,6,0,0,1,10.11-1,2.92,2.92,0,0,0-4.16,1.1l0,0-3.87,7.47-1,1.9-1.18,2.22-.21.44h0a5,5,0,0,1-4,2.07,5.42,5.42,0,0,1-3.57-1.33A5.79,5.79,0,0,0,5.5,19.7Z"/><path class="cls-9" d="M13.73,19.7l.07-.14,0,0,3-6.1,1.85-3.79.05-.1a6,6,0,0,1,10.11-1,3,3,0,0,0-1.58-.46,2.91,2.91,0,0,0-2.59,1.56v0l-3.87,7.47-1,1.9-1.18,2.22-.22.44h0a4.92,4.92,0,0,1-4,2.07,5.4,5.4,0,0,1-3.57-1.33A5.79,5.79,0,0,0,13.73,19.7Z"/><path class="cls-10" d="M4.25,10.75,5.42,13A5.19,5.19,0,0,1,6.2,14.2a.61.61,0,0,1,.07.14l0,0,2.58,5.27.86,1.63.22.44a4.79,4.79,0,0,0,1.84,1.56,5.12,5.12,0,0,0,2.19.51,5.41,5.41,0,0,0,2.57-.64l-1.17-2.27a5.49,5.49,0,0,1-.78-1.18.61.61,0,0,1-.07-.14l0,0-2.58-5.27-.86-1.63-.22-.44A4.74,4.74,0,0,0,9,10.62a4.9,4.9,0,0,0-2.18-.51A5.41,5.41,0,0,0,4.25,10.75Z"/><path class="cls-9" d="M13.73,19.7l.07-.14,0,0,3-6.1,1.85-3.79.05-.1a6,6,0,0,1,10.11-1,3,3,0,0,0-1.58-.46,2.91,2.91,0,0,0-2.59,1.56v0l-3.87,7.47-1,1.9-1.18,2.22-.22.44h0a4.92,4.92,0,0,1-4,2.07,5.4,5.4,0,0,1-3.57-1.33A5.79,5.79,0,0,0,13.73,19.7Z"/><path class="cls-10" d="M4.25,10.75,5.42,13A5.19,5.19,0,0,1,6.2,14.2a.61.61,0,0,1,.07.14l0,0,2.58,5.27.86,1.63.22.44a4.79,4.79,0,0,0,1.84,1.56,5.12,5.12,0,0,0,2.19.51,5.41,5.41,0,0,0,2.57-.64l-1.17-2.27a5.49,5.49,0,0,1-.78-1.18.61.61,0,0,1-.07-.14l0,0-2.58-5.27-.86-1.63-.22-.44A4.74,4.74,0,0,0,9,10.62a4.9,4.9,0,0,0-2.18-.51A5.41,5.41,0,0,0,4.25,10.75Z"/></g></g></svg>